<?xml version="1.0" standalone="no"?>
<!DOCTYPE svg PUBLIC "-//W3C//DTD SVG 20010904//EN"
 "http://www.w3.org/TR/2001/REC-SVG-20010904/DTD/svg10.dtd">
<svg version="1.0" xmlns="http://www.w3.org/2000/svg"
 width="395.000000pt" height="395.000000pt" viewBox="0 0 395.000000 395.000000"
 preserveAspectRatio="xMidYMid meet">
<metadata>
Created by potrace 1.14, written by Peter Selinger 2001-2017
</metadata>
<g transform="translate(0.000000,395.000000) scale(0.100000,-0.100000)"
fill="#000000" stroke="none">
<path d="M1795 3943 c-377 -42 -702 -166 -993 -380 -97 -71 -120 -92 -222
-193 -162 -161 -276 -321 -375 -525 -108 -222 -159 -392 -193 -645 -9 -72 -9
-377 1 -460 31 -263 138 -569 277 -795 105 -171 278 -371 430 -495 288 -236
673 -398 1040 -439 80 -8 390 -7 455 2 100 15 130 21 225 44 487 118 898 407
1184 833 144 214 264 522 302 777 3 21 8 49 10 63 3 14 7 108 9 210 3 165 -1
232 -21 350 -3 19 -8 49 -10 65 -18 105 -82 307 -132 415 -19 41 -36 77 -37
80 -3 13 -52 102 -88 160 -231 372 -587 665 -990 814 -101 38 -252 80 -321 91
-21 3 -49 8 -62 11 -13 3 -38 8 -56 10 -45 5 -396 11 -433 7z"/>
</g>
</svg>
